<svg xmlns="http://www.w3.org/2000/svg" version="1.1" xmlns:xlink="http://www.w3.org/1999/xlink" xmlns:svgjs="http://svgjs.com/svgjs" width="40" height="40" x="0" y="0" viewBox="0 0 512 512" style="enable-background:new 0 0 512 512" xml:space="preserve"><g><path d="M341 8.787V90h81.213z" fill="#000000" data-original="#000000"></path><path d="M182.899 131.104h92.721c25.316 0 49.13 9.841 67.061 27.71l40.192 39.79H431V120H326c-8.284 0-15-6.716-15-15V0H96c-8.284 0-15 6.716-15 15v146.104h24.435c21.226-19.387 48.529-30 77.464-30z" fill="#000000" data-original="#000000"></path><path d="M129.525 383.386c-10.945-13.043-16.156-29.569-14.672-46.533 1.484-16.963 9.485-32.333 22.53-43.279l76.226-63.961a14.997 14.997 0 0 1 9.642-3.509h43.439c3.978 0 7.794 1.58 10.607 4.393l54.385 54.385c13.004 13.004 34 13.146 47.177.424 13.628-13.156 13.301-35.294-.16-48.621l-57.165-56.592c-12.271-12.245-28.573-18.989-45.913-18.99H182.9c-22.704 0-44.05 8.842-60.103 24.896l-5.104 5.104H15.002c-8.284 0-15 6.716-15 15v159.999c0 8.284 6.716 15 15 15h56.876c18.184 24.869 47.593 40 78.676 40h13.428a62.94 62.94 0 0 1-5.362-18.085 63.591 63.591 0 0 1-29.095-19.631z" fill="#000000" data-original="#000000"></path><path d="M497 228.604h-86.733c5.759 9.676 8.854 20.75 8.884 32.312.044 17.066-6.578 33.111-18.646 45.179-12.411 12.412-28.715 18.618-45.019 18.618-16.303 0-32.606-6.206-45.018-18.618l-49.991-49.991H228.71l-72.044 60.452c-14.279 11.981-16.141 33.269-4.16 47.548 11.981 14.279 33.269 16.141 47.548 4.16-14.279 11.981-16.141 33.269-4.16 47.548 11.981 14.279 33.269 16.141 47.548 4.16l7.659-6.427c-14.277 11.982-16.139 33.269-4.158 47.547 11.981 14.279 33.269 16.141 47.548 4.16l15.32-12.855c-14.278 11.981-16.141 33.269-4.159 47.548 11.981 14.279 33.269 16.141 47.548 4.16l101.895-85.5H497c8.284 0 15-6.716 15-15v-160c0-8.286-6.716-15.001-15-15.001z" fill="#000000" data-original="#000000"></path></g></svg>